<?xml version="1.0" encoding="utf-8"?>
<!-- Generator: Adobe Illustrator 16.0.0, SVG Export Plug-In . SVG Version: 6.00 Build 0)  -->
<!DOCTYPE svg PUBLIC "-//W3C//DTD SVG 1.1//EN" "http://www.w3.org/Graphics/SVG/1.1/DTD/svg11.dtd">
<svg version="1.1" id="Layer_1" xmlns="http://www.w3.org/2000/svg" xmlns:xlink="http://www.w3.org/1999/xlink" x="0px" y="0px"
	 width="224.306px" height="237.023px" viewBox="0 0 224.306 237.023" enable-background="new 0 0 224.306 237.023"
	 xml:space="preserve">
<g>
	<g>
		<path d="M145.049,73.276c5.664,6.332,8.498,14.664,8.498,24.992c0,10.164-2.834,18.475-8.498,24.93
			c-5.666,6.453-13.037,9.684-22.117,9.684c-3.916,0-7.602-0.75-11.059-2.25s-6.604-3.623-9.434-6.373v6.123H88.819V41.696h13.621
			v30.33c2.83-2.748,5.977-4.811,9.434-6.186c3.457-1.373,7.143-2.061,11.059-2.061C132.012,63.78,139.383,66.946,145.049,73.276z
			 M137.711,114.995c3.207-4.125,4.813-9.477,4.813-16.059c0-6.662-1.605-12.035-4.813-16.119c-3.207-4.08-7.727-6.123-13.557-6.123
			c-5.748,0-10.207,1.959-13.371,5.873c-3.168,3.918-4.748,9.373-4.748,16.369c0,6.832,1.58,12.246,4.748,16.246
			c3.164,3.998,7.623,5.998,13.371,5.998C129.985,121.18,134.504,119.118,137.711,114.995z"/>
	</g>
	<g>
		<path d="M103.167,132.879H88.479V71.557H70.062V58.059h18.417v-5.746c0-1.723-0.066-3.207-0.201-4.451
			c-0.131-1.244-0.771-2.346-1.918-3.303c-0.969-1.053-2.205-1.531-3.707-1.438c-1.5,0.098-16.943,0.145-18.091,0.145v-13.5h23.121
			c2.736,0,5.076,0.527,7.016,1.58c1.941,1.055,3.529,2.492,4.764,4.307c1.502,1.725,2.473,3.615,2.912,5.674
			c0.441,2.061,0.662,4.908,0.662,8.545L103.167,132.879z"/>
		<path d="M65.353,29.766H50.728c0,0,2.209,13.5,13.834,13.5"/>
		<path d="M72.437,58.059h-11.75c0,0,2.75,13.498,9.375,13.498"/>
	</g>
</g>
<path d="M138.299,35.917c0,0-24.928-10.637-41.746,38.414C96.553,74.331,121.827,79.899,138.299,35.917z"/>
<g>
	<path d="M19.349,158.856h8.014c4.331,0,6.496,1.679,6.496,5.036v0.602c0,0.458-0.053,0.901-0.157,1.331
		c-0.105,0.429-0.286,0.829-0.544,1.201c-0.257,0.372-0.596,0.697-1.016,0.974c-0.42,0.276-0.935,0.491-1.545,0.644
		c1.259,0.191,2.275,0.663,3.048,1.417c0.772,0.754,1.159,1.846,1.159,3.276v0.716c0,1.698-0.534,3.029-1.603,3.992
		c-1.069,0.963-2.719,1.445-4.951,1.445h-8.9V158.856z M22.984,161.89v5.381h2.69c0.706,0,1.34-0.02,1.903-0.058
		c0.563-0.038,1.03-0.144,1.402-0.314c0.372-0.172,0.658-0.435,0.858-0.787c0.201-0.354,0.301-0.854,0.301-1.503v-0.515
		c0-0.878-0.339-1.465-1.016-1.761c-0.677-0.295-1.789-0.443-3.334-0.443H22.984z M22.984,176.457h3.32
		c0.801,0,1.502-0.033,2.104-0.101c0.601-0.066,1.097-0.2,1.488-0.4c0.391-0.2,0.682-0.481,0.873-0.845
		c0.19-0.362,0.286-0.849,0.286-1.459v-0.63c0-0.534-0.091-0.978-0.271-1.331c-0.182-0.353-0.482-0.639-0.902-0.858
		c-0.42-0.219-0.968-0.372-1.646-0.458s-1.502-0.129-2.476-0.129h-2.776V176.457z"/>
	<path d="M54.035,179.49h-3.978l-2.003-5.667h-6.955l-2.032,5.667h-3.749l7.67-20.634h3.291L54.035,179.49z M42.158,170.762h4.836
		l-1.402-4.207c-0.248-0.687-0.443-1.264-0.586-1.731s-0.291-0.949-0.444-1.445c-0.076,0.286-0.148,0.544-0.214,0.772
		c-0.067,0.229-0.139,0.463-0.215,0.701c-0.076,0.239-0.157,0.491-0.243,0.759s-0.196,0.582-0.329,0.944L42.158,170.762z"/>
	<path d="M63.593,171.22h-4.207v8.271h-3.664v-20.634h7.813c1.068,0,2.018,0.143,2.848,0.429s1.526,0.678,2.089,1.174
		c0.563,0.496,0.992,1.092,1.288,1.788c0.296,0.697,0.444,1.455,0.444,2.275v1.059c0,1.088-0.268,2.066-0.801,2.934
		c-0.535,0.869-1.336,1.541-2.404,2.018c0.687,1.508,1.359,3.001,2.018,4.479s1.331,2.972,2.018,4.479h-3.978L63.593,171.22z
		 M59.386,161.918v6.239h3.377c1.412,0,2.399-0.248,2.962-0.744c0.563-0.496,0.844-1.135,0.844-1.917v-0.859
		c0-0.801-0.268-1.454-0.801-1.96c-0.534-0.505-1.431-0.759-2.69-0.759H59.386z"/>
	<path d="M81.337,171.22H77.13v8.271h-3.664v-20.634h7.813c1.068,0,2.018,0.143,2.848,0.429s1.526,0.678,2.089,1.174
		c0.563,0.496,0.992,1.092,1.288,1.788c0.296,0.697,0.444,1.455,0.444,2.275v1.059c0,1.088-0.268,2.066-0.801,2.934
		c-0.535,0.869-1.336,1.541-2.404,2.018c0.687,1.508,1.359,3.001,2.018,4.479s1.331,2.972,2.018,4.479h-3.978L81.337,171.22z
		 M77.13,161.918v6.239h3.377c1.412,0,2.399-0.248,2.962-0.744c0.563-0.496,0.844-1.135,0.844-1.917v-0.859
		c0-0.801-0.268-1.454-0.801-1.96c-0.534-0.505-1.431-0.759-2.69-0.759H77.13z"/>
	<path d="M91.209,158.856h3.664v20.634h-3.664V158.856z"/>
	<path d="M111.643,158.856v3.033h-9.645v5.552h9.043v2.977h-9.043v6.039h9.845v3.033H98.364v-20.634H111.643z"/>
	<path d="M122.489,171.22h-4.207v8.271h-3.664v-20.634h7.813c1.068,0,2.018,0.143,2.848,0.429s1.526,0.678,2.089,1.174
		c0.563,0.496,0.992,1.092,1.288,1.788c0.296,0.697,0.444,1.455,0.444,2.275v1.059c0,1.088-0.268,2.066-0.801,2.934
		c-0.535,0.869-1.336,1.541-2.404,2.018c0.687,1.508,1.359,3.001,2.018,4.479s1.331,2.972,2.018,4.479h-3.978L122.489,171.22z
		 M118.282,161.918v6.239h3.377c1.412,0,2.399-0.248,2.962-0.744c0.563-0.496,0.844-1.135,0.844-1.917v-0.859
		c0-0.801-0.268-1.454-0.801-1.96c-0.534-0.505-1.431-0.759-2.69-0.759H118.282z"/>
	<path d="M131.36,167.985h9.33v2.404h-9.33V167.985z"/>
	<path d="M143.237,179.49v-20.634h13.279v3.091H146.9v5.896h9.015v3.091H146.9v8.557H143.237z"/>
	<path d="M166.59,171.22h-4.207v8.271h-3.664v-20.634h7.813c1.068,0,2.018,0.143,2.848,0.429s1.526,0.678,2.089,1.174
		c0.563,0.496,0.992,1.092,1.288,1.788c0.296,0.697,0.444,1.455,0.444,2.275v1.059c0,1.088-0.268,2.066-0.801,2.934
		c-0.535,0.869-1.336,1.541-2.404,2.018c0.687,1.508,1.359,3.001,2.018,4.479s1.331,2.972,2.018,4.479h-3.978L166.59,171.22z
		 M162.383,161.918v6.239h3.377c1.412,0,2.399-0.248,2.962-0.744c0.563-0.496,0.844-1.135,0.844-1.917v-0.859
		c0-0.801-0.268-1.454-0.801-1.96c-0.534-0.505-1.431-0.759-2.69-0.759H162.383z"/>
	<path d="M189.742,158.856v3.033h-9.645v5.552h9.043v2.977h-9.043v6.039h9.845v3.033h-13.479v-20.634H189.742z"/>
	<path d="M205.997,158.856v3.033h-9.644v5.552h9.043v2.977h-9.043v6.039h9.845v3.033h-13.48v-20.634H205.997z"/>
	<path d="M92.641,208.166c0,1.146-0.153,2.1-0.458,2.862c-0.306,0.764-0.726,1.379-1.259,1.846
		c-0.535,0.468-1.164,0.797-1.889,0.987c-0.726,0.19-1.517,0.286-2.375,0.286c-0.744,0-1.56-0.134-2.447-0.4
		c-0.887-0.268-1.665-0.696-2.333-1.288l1.345-2.232c0.611,0.478,1.183,0.812,1.717,1.002c0.534,0.191,1.135,0.286,1.803,0.286
		c1.068,0,1.846-0.301,2.332-0.901c0.487-0.601,0.73-1.617,0.73-3.048v-14.366h2.833V208.166z"/>
	<path d="M109.554,193.199v2.433H99.538v6.41h9.416v2.433h-9.416v6.926h10.217v2.433h-13.05v-20.634H109.554z"/>
	<path d="M122.117,208.166c0,1.146-0.153,2.1-0.458,2.862c-0.306,0.764-0.726,1.379-1.259,1.846
		c-0.535,0.468-1.164,0.797-1.889,0.987c-0.726,0.19-1.517,0.286-2.375,0.286c-0.744,0-1.56-0.134-2.447-0.4
		c-0.887-0.268-1.665-0.696-2.333-1.288l1.345-2.232c0.611,0.478,1.183,0.812,1.717,1.002c0.534,0.191,1.135,0.286,1.803,0.286
		c1.068,0,1.846-0.301,2.332-0.901c0.487-0.601,0.73-1.617,0.73-3.048v-14.366h2.833V208.166z"/>
	<path d="M141.292,193.199v12.363c0,1.564-0.172,2.891-0.515,3.978c-0.344,1.088-0.84,1.975-1.488,2.662
		c-0.649,0.687-1.45,1.183-2.404,1.487c-0.955,0.306-2.042,0.458-3.263,0.458c-1.221,0-2.309-0.152-3.263-0.458
		c-0.954-0.305-1.755-0.801-2.404-1.487c-0.649-0.688-1.145-1.574-1.488-2.662c-0.343-1.087-0.515-2.413-0.515-3.978v-12.363h2.833
		v12.02c0,1.164,0.095,2.151,0.286,2.962c0.19,0.812,0.486,1.47,0.887,1.975c0.4,0.506,0.906,0.873,1.517,1.102
		c0.61,0.229,1.326,0.344,2.146,0.344c0.82,0,1.536-0.114,2.146-0.344c0.61-0.229,1.116-0.596,1.517-1.102
		c0.401-0.505,0.696-1.163,0.887-1.975c0.19-0.811,0.286-1.798,0.286-2.962v-12.02H141.292z"/>
</g>
</svg>
