<?xml version="1.0" encoding="utf-8"?>
<!-- Generator: Adobe Illustrator 16.0.0, SVG Export Plug-In . SVG Version: 6.00 Build 0)  -->
<!DOCTYPE svg PUBLIC "-//W3C//DTD SVG 1.1//EN" "http://www.w3.org/Graphics/SVG/1.1/DTD/svg11.dtd">
<svg version="1.1" id="Layer_1" xmlns="http://www.w3.org/2000/svg" xmlns:xlink="http://www.w3.org/1999/xlink" x="0px" y="0px"
	 width="224.306px" height="237.023px" viewBox="0 0 224.306 237.023" enable-background="new 0 0 224.306 237.023"
	 xml:space="preserve">
<g>
	<g>
		<path fill="#FAA631" d="M145.063,73.276c5.664,6.332,8.498,14.664,8.498,24.992c0,10.164-2.834,18.475-8.498,24.93
			c-5.666,6.453-13.038,9.684-22.117,9.684c-3.916,0-7.603-0.75-11.059-2.25c-3.458-1.5-6.604-3.623-9.435-6.373v6.123h-13.62
			V41.696h13.62v30.33c2.831-2.748,5.977-4.811,9.435-6.186c3.456-1.373,7.143-2.061,11.059-2.061
			C132.024,63.78,139.396,66.946,145.063,73.276z M137.725,114.995c3.207-4.125,4.812-9.477,4.812-16.059
			c0-6.662-1.604-12.035-4.812-16.119c-3.207-4.08-7.728-6.123-13.558-6.123c-5.748,0-10.206,1.959-13.37,5.873
			c-3.168,3.918-4.749,9.373-4.749,16.369c0,6.832,1.581,12.246,4.749,16.246c3.164,3.998,7.622,5.998,13.37,5.998
			C129.997,121.18,134.518,119.118,137.725,114.995z"/>
	</g>
	<g>
		<path fill="#FAA631" d="M103.18,132.879H88.491V71.557H70.074V58.059h18.417v-5.746c0-1.723-0.066-3.207-0.2-4.451
			c-0.132-1.244-0.772-2.346-1.919-3.303c-0.969-1.053-2.205-1.531-3.706-1.438c-1.501,0.098-16.943,0.145-18.092,0.145v-13.5h23.12
			c2.736,0,5.076,0.527,7.016,1.58c1.941,1.055,3.529,2.492,4.765,4.307c1.501,1.725,2.472,3.615,2.912,5.674
			c0.44,2.061,0.661,4.908,0.661,8.545L103.18,132.879z"/>
		<path fill="#FAA631" d="M65.365,29.766H50.74c0,0,2.209,13.5,13.834,13.5"/>
		<path fill="#FAA631" d="M72.449,58.059h-11.75c0,0,2.75,13.498,9.375,13.498"/>
	</g>
</g>
<g>
	<path fill="#58595B" d="M25.372,159.112h8.014c4.331,0,6.496,1.68,6.496,5.037v0.602c0,0.457-0.053,0.9-0.157,1.33
		s-0.286,0.83-0.544,1.201c-0.257,0.373-0.596,0.697-1.016,0.975c-0.42,0.275-0.935,0.49-1.545,0.643
		c1.259,0.191,2.274,0.664,3.048,1.418c0.772,0.754,1.158,1.846,1.158,3.275v0.717c0,1.697-0.534,3.029-1.603,3.992
		c-1.068,0.962-2.719,1.447-4.951,1.447h-8.9V159.112z M29.006,162.145v5.381h2.69c0.706,0,1.34-0.02,1.903-0.057
		c0.563-0.039,1.03-0.145,1.402-0.314c0.372-0.172,0.658-0.436,0.858-0.787c0.2-0.354,0.301-0.854,0.301-1.504v-0.514
		c0-0.879-0.339-1.465-1.017-1.762c-0.677-0.295-1.788-0.443-3.334-0.443H29.006z M29.006,176.713h3.32
		c0.801,0,1.502-0.033,2.104-0.102c0.601-0.066,1.097-0.199,1.488-0.4c0.391-0.199,0.682-0.48,0.872-0.844s0.286-0.85,0.286-1.459
		v-0.631c0-0.533-0.091-0.977-0.271-1.33c-0.182-0.354-0.482-0.639-0.901-0.859c-0.42-0.219-0.969-0.371-1.646-0.457
		c-0.678-0.086-1.503-0.129-2.476-0.129h-2.776V176.713z"/>
	<path fill="#58595B" d="M60.63,179.748h-3.979l-2.003-5.669h-6.955l-2.031,5.669h-3.749l7.67-20.636h3.291L60.63,179.748z
		 M48.753,171.018h4.836l-1.402-4.207c-0.248-0.688-0.443-1.264-0.586-1.732c-0.144-0.467-0.291-0.949-0.444-1.445
		c-0.076,0.287-0.147,0.545-0.214,0.773c-0.067,0.229-0.139,0.463-0.215,0.701s-0.157,0.49-0.243,0.758s-0.196,0.582-0.329,0.945
		L48.753,171.018z"/>
	<path fill="#58595B" d="M70.76,171.475h-4.206v8.273H62.89v-20.636h7.813c1.068,0,2.018,0.143,2.848,0.43
		c0.83,0.285,1.526,0.678,2.089,1.174s0.992,1.092,1.288,1.787c0.296,0.697,0.443,1.455,0.443,2.275v1.059
		c0,1.088-0.268,2.066-0.801,2.934c-0.535,0.869-1.336,1.541-2.404,2.018c0.687,1.508,1.359,3.002,2.018,4.48
		s1.331,2.971,2.018,4.48h-3.979L70.76,171.475z M66.554,162.174v6.238h3.377c1.411,0,2.398-0.248,2.962-0.744
		c0.563-0.496,0.844-1.135,0.844-1.916v-0.859c0-0.801-0.268-1.455-0.801-1.961c-0.534-0.504-1.432-0.758-2.69-0.758H66.554z"/>
	<path fill="#58595B" d="M81.206,159.112h3.664v20.636h-3.664V159.112z"/>
	<path fill="#58595B" d="M102.212,159.112v3.033h-9.645v5.553h9.043v2.977h-9.043v6.039h9.845v3.035H88.933v-20.636H102.212z"/>
	<path fill="#58595B" d="M113.63,171.475h-4.207v8.273h-3.663v-20.636h7.813c1.068,0,2.018,0.143,2.848,0.43
		c0.83,0.285,1.526,0.678,2.09,1.174c0.563,0.496,0.991,1.092,1.287,1.787c0.296,0.697,0.444,1.455,0.444,2.275v1.059
		c0,1.088-0.268,2.066-0.802,2.934c-0.534,0.869-1.336,1.541-2.404,2.018c0.688,1.508,1.359,3.002,2.018,4.48
		s1.331,2.971,2.018,4.48h-3.978L113.63,171.475z M109.423,162.174v6.238h3.377c1.412,0,2.399-0.248,2.962-0.744
		s0.845-1.135,0.845-1.916v-0.859c0-0.801-0.268-1.455-0.802-1.961c-0.534-0.504-1.431-0.758-2.689-0.758H109.423z"/>
	<path fill="#58595B" d="M123.074,168.241h9.33v2.404h-9.33V168.241z"/>
	<path fill="#58595B" d="M135.523,179.748v-20.636h13.279v3.092h-9.615v5.895h9.015v3.092h-9.015v8.558H135.523z"/>
	<path fill="#58595B" d="M159.448,171.475h-4.206v8.273h-3.664v-20.636h7.813c1.068,0,2.018,0.143,2.848,0.43
		c0.83,0.285,1.526,0.678,2.089,1.174s0.992,1.092,1.288,1.787c0.296,0.697,0.443,1.455,0.443,2.275v1.059
		c0,1.088-0.268,2.066-0.801,2.934c-0.535,0.869-1.336,1.541-2.404,2.018c0.687,1.508,1.359,3.002,2.018,4.48
		s1.331,2.971,2.018,4.48h-3.979L159.448,171.475z M155.242,162.174v6.238h3.377c1.411,0,2.398-0.248,2.962-0.744
		c0.563-0.496,0.844-1.135,0.844-1.916v-0.859c0-0.801-0.268-1.455-0.801-1.961c-0.534-0.504-1.432-0.758-2.69-0.758H155.242z"/>
	<path fill="#58595B" d="M183.172,159.112v3.033h-9.645v5.553h9.044v2.977h-9.044v6.039h9.845v3.035h-13.479v-20.636H183.172z"/>
	<path fill="#58595B" d="M200,159.112v3.033h-9.645v5.553h9.043v2.977h-9.043v6.039h9.845v3.035h-13.479v-20.636H200z"/>
	<path fill="#58595B" d="M92.654,208.422c0,1.145-0.153,2.1-0.458,2.861c-0.306,0.764-0.726,1.379-1.259,1.846
		c-0.535,0.469-1.164,0.797-1.889,0.988c-0.726,0.189-1.518,0.285-2.376,0.285c-0.744,0-1.56-0.133-2.446-0.4
		c-0.888-0.268-1.665-0.695-2.333-1.287l1.345-2.232c0.611,0.477,1.184,0.811,1.718,1.002s1.135,0.285,1.803,0.285
		c1.068,0,1.846-0.301,2.332-0.9c0.487-0.602,0.73-1.617,0.73-3.049v-14.365h2.833V208.422z"/>
	<path fill="#58595B" d="M109.567,193.455v2.432H99.55v6.41h9.416v2.434H99.55v6.926h10.217v2.432h-13.05v-20.633H109.567z"/>
	<path fill="#58595B" d="M122.13,208.422c0,1.145-0.153,2.1-0.458,2.861c-0.306,0.764-0.726,1.379-1.259,1.846
		c-0.535,0.469-1.164,0.797-1.889,0.988c-0.726,0.189-1.518,0.285-2.376,0.285c-0.744,0-1.56-0.133-2.446-0.4
		c-0.888-0.268-1.665-0.695-2.333-1.287l1.345-2.232c0.611,0.477,1.184,0.811,1.718,1.002s1.135,0.285,1.803,0.285
		c1.068,0,1.846-0.301,2.332-0.9c0.487-0.602,0.73-1.617,0.73-3.049v-14.365h2.833V208.422z"/>
	<path fill="#58595B" d="M141.304,193.455v12.363c0,1.564-0.172,2.891-0.515,3.977c-0.344,1.088-0.84,1.975-1.488,2.662
		c-0.649,0.688-1.45,1.184-2.404,1.488s-2.042,0.457-3.263,0.457s-2.309-0.152-3.263-0.457s-1.755-0.801-2.403-1.488
		c-0.649-0.688-1.145-1.574-1.488-2.662c-0.344-1.086-0.516-2.412-0.516-3.977v-12.363h2.834v12.02c0,1.164,0.095,2.15,0.286,2.961
		c0.19,0.813,0.486,1.471,0.887,1.975c0.4,0.506,0.906,0.873,1.517,1.102c0.61,0.23,1.326,0.344,2.146,0.344
		s1.536-0.113,2.146-0.344c0.61-0.229,1.116-0.596,1.517-1.102c0.401-0.504,0.696-1.162,0.888-1.975
		c0.19-0.811,0.286-1.797,0.286-2.961v-12.02H141.304z"/>
</g>
<path fill="#6AC17B" d="M138.313,35.917c0,0-24.929-10.637-41.747,38.414C96.565,74.331,121.839,79.899,138.313,35.917z"/>
</svg>
